<?xml version="1.0" encoding="UTF-8" standalone="no"?>
<svg xmlns:svg="http://www.w3.org/2000/svg" xmlns="http://www.w3.org/2000/svg" version="1.0" width="500" height="115" id="svg2" xml:space="preserve"><defs id="defs6"/><g transform="matrix(1.25,0,0,-1.25,-224.55735,540.54816)" id="g12"><path d="m 221.82237,429.59456 c 0.19612,0.58846 0.29423,0.78626 0.29423,1.57044 0,0.88187 -0.68695,1.17693 -1.76536,1.17693 l -5.78692,0 c -1.37347,0 -2.1581,-0.39232 -2.64848,-1.76579 l -31.97573,-87.39293 c -0.0982,-0.29423 -0.29423,-0.982 -0.29423,-1.47278 0,-1.1753 1.07884,-1.1753 1.96193,-1.1753 l 5.68883,0 c 1.56922,0 2.15768,0.48875 2.64806,1.86387 l 31.87767,87.19556 z" id="path20" style="fill:#5874a8;fill-opacity:1;fill-rule:evenodd;stroke:none"/><path d="m 254.2742,395.46155 c 1.27499,1.37307 4.41342,4.70931 7.45379,4.70931 2.25657,0 4.02196,-1.07967 4.61039,-1.07967 0.39232,0 0.68655,0.58886 0.78464,0.88187 l 3.04077,8.23922 c 0.0982,0.19612 0.19612,0.58847 0.19612,0.98158 0,1.27502 -2.84423,2.2566 -5.68883,2.2566 -6.67001,0 -10.29885,-5.49311 -12.16229,-7.74968 -0.49078,3.33623 -2.45231,7.74968 -3.62924,7.74968 -0.39229,0 -0.88267,-0.29423 -1.27539,-0.39232 l -7.45381,-3.04077 c -0.49038,-0.19612 -0.8831,-0.49078 -0.8831,-0.88187 0,-2.25699 2.55,-4.02276 2.55,-14.81155 l 0,-29.62151 c 0,-1.07926 0.19612,-1.37267 1.37347,-1.37267 l 9.71038,0 c 1.17733,0 1.37348,0.29423 1.37348,1.37267 l 0,32.75994 z" id="path22" style="fill:#605e5e;fill-opacity:1;fill-rule:evenodd;stroke:none"/><path d="m 302.21063,408.40968 c 0,1.07762 -0.19612,1.37265 -1.37307,1.37265 l -18.63653,0 c -1.17653,0 -1.37267,-0.29423 -1.37267,-1.37265 l 0,-6.37538 c 0,-1.07924 0.19611,-1.37469 1.37267,-1.37469 l 7.55308,0 0,-37.958 c 0,-1.07924 0.19611,-1.37267 1.37267,-1.37267 l 9.71078,0 c 1.1769,0 1.37307,0.29424 1.37307,1.37267 l 0,45.70807 z m 1.76536,15.88917 c 0,4.5115 -3.62881,8.04308 -8.04265,8.04308 -4.51193,0 -8.14117,-3.53158 -8.14117,-8.04308 0,-4.51151 3.62924,-8.14114 8.14117,-8.14114 4.41384,0 8.04265,3.62963 8.04265,8.14114 z" id="path24" style="fill:#605e5e;fill-opacity:1;fill-rule:evenodd;stroke:none"/><path d="m 353.89563,372.21583 c -0.0982,0.39231 -0.39232,0.58846 -0.78461,0.58846 -1.3735,0 -3.82498,-1.86385 -7.74885,-1.86385 -3.33501,0 -3.33501,2.84543 -3.33501,5.98429 l 0,23.73488 9.71036,0 c 1.17733,0 1.47116,0.0982 1.76579,1.47278 l 1.27498,5.78649 c 0.0982,0.39232 0.0982,0.58846 0.0982,0.78421 0,1.07924 -0.78461,1.07924 -1.66771,1.07924 l -11.18151,0 0,13.73231 c 0,1.17733 -0.0982,1.66608 -0.98076,1.66608 -0.58846,0 -0.98078,-0.0979 -1.27501,-0.0979 l -8.63152,-1.17733 c -1.37307,-0.19612 -1.56921,-0.48875 -1.56921,-1.76416 l 0,-12.35924 -6.96384,0 c -1.17733,0 -1.37348,-0.29423 -1.37348,-1.37267 l 0,-6.37535 c 0,-1.07927 0.19612,-1.3747 1.37348,-1.3747 l 6.96384,0 0,-22.06883 c 0,-9.02301 0,-18.92994 12.65264,-18.92994 6.67001,0 13.8304,1.86385 13.8304,3.7273 0,0.29423 -0.0982,0.29423 -0.19612,0.78421 l -1.96153,8.04348 z" id="path26" style="fill:#605e5e;fill-opacity:1;fill-rule:evenodd;stroke:none"/><path d="m 406.25284,369.56777 c 0.0982,0.19612 0.39232,0.58886 0.39232,1.07967 0,0.29423 0,0.97952 -1.86345,0.97952 l -22.36346,0 22.16729,29.52342 0,7.65037 c 0,0.58846 -0.88267,0.98158 -1.66731,0.98158 l -31.09303,0 c -1.07884,0 -1.37307,-0.39229 -1.37307,-1.37265 l 0,-7.65036 c 0,-0.68818 0.19612,-1.27499 0.68652,-1.27499 l 19.81306,0 -22.55918,-29.81887 0,-7.35696 c 0,-0.58847 0.3923,-0.97956 0.98076,-0.97956 l 32.66228,0 c 0.39229,0 1.07884,0.49081 1.37307,1.27502 l 2.8446,6.96381 z" id="path28" style="fill:#605e5e;fill-opacity:1;fill-rule:evenodd;stroke:none"/><path d="m 460.08038,363.09473 c 0.49041,0.19612 0.8827,0.48915 0.8827,0.88187 0,1.96153 -2.54997,3.23652 -2.54997,12.75076 l 0,18.92994 c 0,10.20239 -4.61042,15.79316 -16.87078,15.79316 -7.5527,0 -17.26306,-2.35425 -17.26306,-4.61122 0,-0.39232 0.0982,-0.78421 0.29423,-1.17733 l 1.96194,-5.98186 c 0.0979,-0.39229 0.49037,-0.98198 0.98075,-0.98198 1.27499,0 6.66961,2.94312 12.1623,2.94312 6.1796,0 6.96421,-2.84503 6.96421,-7.25888 l 0,-3.03914 c -7.74882,0 -25.60035,0 -25.60035,-16.57735 0,-9.2208 5.68923,-15.10498 14.71267,-15.10498 7.35653,0 10.78962,3.92304 12.75156,5.88418 0.49037,-2.45029 1.9615,-5.88418 2.8442,-5.88418 0.39232,0 0.88269,0.29423 1.27541,0.39232 l 7.45419,3.04077 z m -13.43768,9.41616 c -1.1769,-1.17733 -3.72729,-3.72733 -7.35613,-3.72733 -3.7273,0 -6.47344,2.8434 -6.47344,6.66879 0,8.63194 11.37726,7.84773 13.82957,7.84773 l 0,-10.78919 z" id="path30" style="fill:#605e5e;fill-opacity:1;fill-rule:evenodd;stroke:none"/><path d="m 520.98701,362.40658 c 0.68652,0.19612 1.07884,0.58844 1.07884,1.07924 0,2.25697 -1.86385,1.47073 -1.86385,15.30276 l 0,30.60063 c 0,1.66813 -0.19612,2.06125 -0.98078,2.06125 -0.19612,0 -1.07884,-0.29423 -1.37307,-0.29423 l -8.2388,-1.66813 c -1.17732,-0.29424 -1.86387,-0.29424 -1.86387,-1.76414 l 0,-34.7231 c -1.27499,-0.88229 -4.51191,-3.0412 -8.63152,-3.0412 -5.00231,0 -5.49269,4.51356 -5.49269,8.24088 l 0,31.1895 c 0,1.6681 -0.19612,2.06122 -0.98078,2.06122 -0.19612,0 -1.07884,-0.29423 -1.37304,-0.29423 l -8.23966,-1.66811 c -1.17649,-0.29423 -1.86304,-0.29423 -1.86304,-1.76416 l 0,-33.74152 c 0,-11.86843 7.35613,-14.32077 12.75075,-14.32077 7.74886,0 12.35885,3.43392 15.0069,5.78651 1.07884,-3.92264 1.86345,-5.78651 3.13844,-5.78651 0.39231,0 0.88309,0.0982 1.47195,0.29423 l 7.45422,2.45028 z" id="path32" style="fill:#605e5e;fill-opacity:1;fill-rule:evenodd;stroke:none"/><path d="m 579.35165,429.59456 c 0.19612,0.58846 0.29423,0.78626 0.29423,1.57044 0,0.88187 -0.68695,1.17693 -1.76619,1.17693 l -5.78649,0 c -1.37307,0 -2.1581,-0.39232 -2.64808,-1.76579 l -31.97613,-87.39293 c -0.0982,-0.29423 -0.29423,-0.982 -0.29423,-1.47278 0,-1.1753 1.07924,-1.1753 1.96193,-1.1753 l 5.68883,0 c 1.56962,0 2.15808,0.48875 2.64846,1.86387 l 31.87727,87.19556 z" id="path46" style="fill:#5874a8;fill-opacity:1;fill-rule:evenodd;stroke:none"/></g></svg>